<svg width="179" height="107" viewBox="0 0 179 107" fill="none" xmlns="http://www.w3.org/2000/svg">
<path d="M0.0966797 24C0.0966797 21.7909 1.88754 20 4.09668 20H9.09668C11.3058 20 13.0967 21.7909 13.0967 24V107H0.0966797V24Z" fill="#2B2B36"/>
<path d="M0.0966797 67C0.0966797 64.7909 1.88754 63 4.09668 63H9.09668C11.3058 63 13.0967 64.7909 13.0967 67V107H0.0966797V67Z" fill="#A9DFD8"/>
<path d="M33.0967 4C33.0967 1.79086 34.8875 0 37.0967 0H42.0967C44.3058 0 46.0967 1.79086 46.0967 4V107H33.0967V4Z" fill="#2B2B36"/>
<path d="M33.3418 56C33.3418 53.7909 35.1327 52 37.3418 52H42.3418C44.5509 52 46.3418 53.7909 46.3418 56V107H33.3418V56Z" fill="#A9DFD8"/>
<path d="M66.3418 24C66.3418 21.7909 68.1327 20 70.3418 20H75.3418C77.5509 20 79.3418 21.7909 79.3418 24V107H66.3418V24Z" fill="#2B2B36"/>
<path d="M66.3418 75C66.3418 72.7909 68.1327 71 70.3418 71H75.3418C77.5509 71 79.3418 72.7909 79.3418 75V107H66.3418V75Z" fill="#A9DFD8"/>
<path d="M99.3418 32C99.3418 29.7909 101.133 28 103.342 28H108.342C110.551 28 112.342 29.7909 112.342 32V107H99.3418V32Z" fill="#2B2B36"/>
<path d="M99.3418 89C99.3418 86.7909 101.133 85 103.342 85H108.342C110.551 85 112.342 86.7909 112.342 89V107H99.3418V89Z" fill="#A9DFD8"/>
<path d="M132.362 49.8569C132.362 47.6478 134.153 45.8569 136.362 45.8569H141.362C143.571 45.8569 145.362 47.6478 145.362 49.8569V106.857H132.362V49.8569Z" fill="#2B2B36"/>
<path d="M132.342 79C132.342 76.7909 134.133 75 136.342 75H141.342C143.551 75 145.342 76.7909 145.342 79V107H132.342V79Z" fill="#A9DFD8"/>
<path d="M165.362 45C165.362 42.7909 167.153 41 169.362 41H174.362C176.571 41 178.362 42.7909 178.362 45V107H165.362V45Z" fill="#2B2B36"/>
<path d="M165.362 67C165.362 64.7909 167.153 63 169.362 63H174.362C176.571 63 178.362 64.7909 178.362 67V107H165.362V67Z" fill="#A9DFD8"/>
</svg>
