<svg width="421" height="133" viewBox="0 0 421 133" fill="none" xmlns="http://www.w3.org/2000/svg">
<path d="M1.46582 127L5.96085 117L14.4515 127L18.447 120.5L24.4404 127L30.4338 120.5L39.9233 127H52.4095L68.8912 92.5L81.3774 24L89.868 79L103.353 86L111.844 79L122.332 90L134.818 86L143.309 57L149.802 66.5L161.289 1.00002L166.783 17L180.767 28L189.258 19.5L194.253 5.50001L200.246 19.5L212.732 28L226.217 74.5L235.707 35.5L246.695 24L258.182 35.5L266.672 17L272.166 28L287.15 38.5L304.131 35.5L316.617 19.5L334.597 79L347.083 86L357.572 66.5L363.565 79L376.551 86L382.045 104L390.036 82L403.521 66.5L411.512 86L419.004 57" stroke="#A9DFD8" stroke-width="3"/>
<path d="M6.46017 119.5L0.466797 131.5L420.502 132.5V57.5L412.012 90.5L403.022 69.5L391.534 82.5L382.045 107.5L375.552 87L362.566 80L357.572 69.5L347.583 87.5L333.099 80L316.118 22.5L305.13 36.5L286.65 40L271.167 29L266.672 20.5L258.681 38L246.694 26L237.205 36L226.717 79L211.234 29L199.247 20.5L194.252 9.49998L190.756 20L180.767 30L165.784 18L161.788 6.99998L150.801 70L143.808 60.5L135.817 87L121.833 91.5L111.844 81L103.852 87.5L88.869 80L81.3773 32.5L70.3895 93L53.4082 128.5H39.4237L30.4336 122L24.4403 128.5L18.4469 123L14.4513 129L6.46017 119.5Z" fill="url(#paint0_linear_1_217)"/>
<defs>
<linearGradient id="paint0_linear_1_217" x1="211.234" y1="-3.00001" x2="210.233" y2="129.5" gradientUnits="userSpaceOnUse">
<stop stop-color="#A9DFD8"/>
<stop offset="1" stop-color="#A9DFD8" stop-opacity="0.01"/>
</linearGradient>
</defs>
</svg>
